PathFileType	4	(X/Y/Z)	Patient4_TMGait_0pt4_01_right_32.trc.trc
DataRate	CameraRate	NumFrames	NumMarkers	Units	OrigDataRate	OrigDataStartFrame	OrigNumFrames
74.074074074074	74.074074074074	4	33	mm	74.074074074074	124	       141
Frame#	Time	Sacral			L.Shoulder			Chest			R.Shoulder			Neck			R.ASIS			L.ASIS			R.Thigh.Superior			R.Thigh.Lateral			R.Thigh.Inferior			R.Patella			L.Thigh.Superior			L.Thigh.Lateral			L.Thigh.Inferior			L.Patella			L.Shank.Superior			L.Shank.Lateral			L.Shank.Inferior			R.Shank.Superior			R.Shank.Lateral			R.Shank.Inferior			R.Heel			R.Midfoot.Superior			R.Midfoot.Lateral			R.Toe			L.Heel			L.Midfoot.Lateral			L.Midfoot.Superior			L.Toe			L.Elbow			L.Wrist			R.Elbow			R.Wrist			
		X1	Y1	Z1	X2	Y2	Z2	X3	Y3	Z3	X4	Y4	Z4	X5	Y5	Z5	X6	Y6	Z6	X7	Y7	Z7	X8	Y8	Z8	X9	Y9	Z9	X10	Y10	Z10	X11	Y11	Z11	X12	Y12	Z12	X13	Y13	Z13	X14	Y14	Z14	X15	Y15	Z15	X16	Y16	Z16	X17	Y17	Z17	X18	Y18	Z18	X19	Y19	Z19	X20	Y20	Z20	X21	Y21	Z21	X22	Y22	Z22	X23	Y23	Z23	X24	Y24	Z24	X25	Y25	Z25	X26	Y26	Z26	X27	Y27	Z27	X28	Y28	Z28	X29	Y29	Z29	X30	Y30	Z30	X31	Y31	Z31	X32	Y32	Z32	X33	Y33	Z33	

124	43.150500000000	837.609966701815	1000.085189916317	477.417503294354	1036.352561632565	1426.339911707425	304.304585366892	1117.738306798828	1361.569450020330	478.030990428866	1013.873888942762	1436.707340508988	639.863629037621	997.602005584038	1491.036833360039	459.097748758351	1057.431921708565	942.180756297559	615.609169928398	1063.474982866165	955.714664395411	339.608958671407	1126.939899462406	755.994194277717	588.055870392572	1066.136609951402	635.839260606600	652.430779752744	1154.928224814993	594.847318862219	575.684688983724	1175.397998254221	507.749258193109	587.388560379021	1069.238900979378	728.835136352657	370.270378341964	958.060484647190	631.813209515751	300.396634327703	1017.252079669852	539.818031911227	367.319784914935	1001.866857901125	472.938457248955	376.181088420188	967.706645681438	405.529142342404	365.594438432992	865.305936990409	304.282783259419	309.472768090473	896.523610187294	186.696731241488	382.039581190054	1149.894140152344	417.801340669181	597.204029975341	1082.581411777419	311.287732026525	659.560736737149	1138.438495872948	218.158564905050	605.277845266991	1023.875651705978	43.430808354027	577.024607621612	1190.716718980454	105.459950532257	617.373378674213	1106.147338886730	38.567810941896	652.975231652645	1311.804158670706	59.874459891822	646.384830630001	753.833132008647	37.926692540133	418.925039625645	829.725079611602	34.975875081016	340.135424592593	912.789183106059	95.059200335386	369.595652505162	1042.185924201721	41.239667142833	343.770255877749	1079.483093178465	1088.192912810132	163.558814407087	1285.925602348405	927.614980521178	173.077681126629	877.926188649629	1118.201437037300	745.317666303184	856.298098057935	859.834495069239	770.681299624695	
125	43.164000000000	839.578029813150	999.158025534547	480.418561263472	1037.136090590871	1425.719653833222	307.644253801042	1119.001642003849	1361.091316711227	481.200382231114	1015.141050186351	1435.718508235872	643.336011632871	998.486500079189	1490.257705565463	462.549974248704	1059.839512517289	940.982608122028	617.931892905641	1065.161811395480	955.065241177643	342.146157903639	1129.070240287642	754.150941312492	589.699805151067	1066.470434188896	634.142622463250	652.874051077965	1155.320949503777	593.095491346776	576.318930571793	1174.191823179993	505.225241362680	587.176413100029	1070.626047938358	727.797648318780	371.547608254447	958.673920942021	631.004069195428	302.473874904464	1018.547611581942	538.581281855173	368.430791182371	1003.232936241293	470.944696966737	376.977533283302	967.425209260392	404.159624172038	366.525877058482	862.881157377879	304.860401810481	310.550774786277	892.646334251764	186.364966654310	382.302868817641	1147.665006045962	415.049186570373	596.864711243153	1078.933528894839	309.292505075916	659.004835616671	1132.915682553458	215.536500798161	604.082262230794	1015.353874420060	43.143686200811	575.632818581249	1182.824239073719	103.077447169091	615.805907041445	1097.341989354213	37.894161052609	652.013935444795	1303.571029557286	55.976503666282	645.512286963785	748.349566650244	38.578613559473	418.811807649857	824.304572051469	35.055226643491	340.170053626210	907.621712477510	95.044347636146	369.471672655360	1036.800961470315	41.013395109557	343.710479779601	1078.564875544971	1087.138937610315	166.959620178773	1283.793977406415	924.866060049111	175.540319139970	880.066028875529	1116.732964958290	748.405285799038	859.611971118111	857.990612084890	772.656335360285	
126	43.177500000000	841.485488641172	998.387902211725	483.533783544770	1037.854607771112	1425.284829983309	311.091351813986	1120.292892991716	1360.754982853598	484.428765939972	1016.538273604080	1434.860297319172	646.939510230825	999.410220461109	1489.660340290234	466.134572221383	1062.256508786454	939.989947229259	620.308831008457	1066.839022647403	954.609765426224	344.720895688766	1131.032568765807	752.446812523539	591.283731216262	1066.983023650721	632.860451905861	653.641222150082	1155.569876923772	591.563223558398	576.995663560555	1173.047780853493	503.021164259772	587.231074077295	1072.544567341943	727.019108840121	372.827165162016	960.137706729220	630.143109760652	304.637022123396	1021.101312327991	537.396836347127	369.515123419642	1006.030742800073	468.795055274331	377.606043758714	968.245008669789	402.712949431974	367.410337227681	861.277041617930	305.734998420383	311.675311551929	889.280925618530	186.235420258216	382.492562451479	1145.610629787863	412.696704225662	596.804425148492	1075.758146148020	307.628472195046	658.909107525905	1127.837495802390	213.293428399609	603.238960091552	1007.394294861639	43.008222651759	574.778907489304	1175.491064554089	101.123101787916	614.584956344442	1089.239723621071	37.449135005766	651.446670521549	1295.993052324296	52.637220243054	644.769587554315	742.960075997711	39.960648659765	418.627204044809	818.942908341935	35.456106923285	340.186589047589	902.703021032943	95.103727594665	369.247220623476	1031.406815330323	40.694649672007	343.648271727084	1077.369827676849	1086.128798001970	170.648551727418	1280.894733887041	921.562768812092	178.034362304128	883.105077160408	1114.942519352936	751.634180744688	864.340861088971	855.790636764783	774.890705678254	
127	43.191000000000	843.297989492959	997.833976787346	486.737987812916	1038.516558786306	1425.090179795139	314.612707290708	1121.598558178081	1360.593096346273	487.683938051669	1018.062279535178	1434.195914053211	650.625622130490	1000.366269030394	1489.293290276088	469.812347586989	1064.610131974150	939.258648779983	622.756769370926	1068.489440614430	954.410885377177	347.320762132180	1132.729240059439	750.969929036039	592.883731349544	1067.591818100066	632.021693542846	654.799229635952	1155.622537097795	590.298824985020	577.826809677897	1171.897213281036	501.212279038039	587.673369040459	1074.993015389404	726.570912062588	374.174013498509	962.557032154614	629.268505310286	306.841675696237	1025.012213337221	536.332364510030	370.558696516359	1010.349476856965	466.573130866124	378.020801347144	970.276879632522	401.257448589863	368.205529419828	860.635257815931	307.001263746769	312.797403964482	886.551429325285	186.427129868783	382.578821814026	1143.697419218147	410.805880910289	597.097973141822	1073.027878080165	306.320931479144	659.275676277018	1123.268700261504	211.493657080458	602.782888791263	1000.193813569244	42.997608557523	574.385365432423	1168.872905755732	99.631493903948	613.756603361307	1082.003935481819	37.202663208423	651.218697423148	1289.209076341281	49.946004048044	644.220829712403	737.742551371960	42.330722531536	418.355436204814	813.684323957135	36.344744876546	340.169942199192	898.127217761482	95.300358551332	368.900832938834	1025.995140044993	40.274435733128	343.594619889401	1075.904060894540	1085.228764362541	174.622563581580	1277.184151801625	917.767236348330	180.565842680361	887.023837762771	1112.932555589193	754.990490746207	870.496939224733	853.357327055705	777.368616412147	
